<svg width="16" height="16" viewBox="0 0 16 16" fill="none" xmlns="http://www.w3.org/2000/svg">
<g clip-path="url(#clip0_184_10208)">
<path d="M5.66287 9.66033C6.10461 9.66033 6.52826 9.48485 6.84061 9.1725C7.15297 8.86014 7.32845 8.43649 7.32845 7.99475C7.32845 7.07535 6.99533 6.66229 6.66222 5.99605C5.94802 4.56832 6.51298 3.29515 7.99468 1.99866C8.3278 3.66424 9.32715 5.2632 10.6596 6.32917C11.9921 7.39514 12.6583 8.66098 12.6583 9.99345C12.6583 10.6059 12.5377 11.2123 12.3033 11.7781C12.0689 12.344 11.7254 12.8581 11.2924 13.2911C10.8593 13.7242 10.3452 14.0677 9.77938 14.3021C9.21356 14.5364 8.60712 14.6571 7.99468 14.6571C7.38225 14.6571 6.77581 14.5364 6.20999 14.3021C5.64417 14.0677 5.13006 13.7242 4.697 13.2911C4.26394 12.8581 3.92042 12.344 3.68605 11.7781C3.45168 11.2123 3.33105 10.6059 3.33105 9.99345C3.33105 9.22528 3.61953 8.46511 3.99729 7.99475C3.99729 8.43649 4.17277 8.86014 4.48512 9.1725C4.79748 9.48485 5.22113 9.66033 5.66287 9.66033Z" stroke="#FF6900" stroke-width="1.33247" stroke-linecap="round" stroke-linejoin="round"/>
</g>
<defs>
<clipPath id="clip0_184_10208">
<rect width="15.9896" height="15.9896" fill="white"/>
</clipPath>
</defs>
</svg>
