<svg width="14" height="14" viewBox="0 0 14 14" fill="none" xmlns="http://www.w3.org/2000/svg">
<g clip-path="url(#clip0_184_10189)">
<path d="M7 3.80796V1.74996C7 1.59525 7.06146 1.44688 7.17085 1.33748C7.28025 1.22808 7.42862 1.16663 7.58333 1.16663" stroke="#2FCCAC" stroke-width="1.33" stroke-linecap="round" stroke-linejoin="round"/>
<path d="M10.6382 12.25C12.0611 10.6409 12.8424 8.56463 12.8333 6.41667C12.8333 5.74103 12.6377 5.07983 12.2702 4.51289C11.9027 3.94595 11.3789 3.49751 10.7621 3.22169C10.1454 2.94586 9.46193 2.85445 8.79435 2.9585C8.12677 3.06254 7.50357 3.35758 6.99997 3.808C6.49638 3.35758 5.87318 3.06254 5.20559 2.9585C4.53801 2.85445 3.85458 2.94586 3.23781 3.22169C2.62103 3.49751 2.09727 3.94595 1.72975 4.51289C1.36223 5.07983 1.16665 5.74103 1.16664 6.41667C1.16296 8.56365 1.94356 10.6381 3.36172 12.25C3.62288 12.5422 3.97456 12.7382 4.3604 12.8068C4.74624 12.8753 5.14391 12.8124 5.48972 12.628C5.9545 12.38 6.47318 12.2503 6.99997 12.2503C7.52676 12.2503 8.04545 12.38 8.51022 12.628C8.85603 12.8124 9.25371 12.8753 9.63955 12.8068C10.0254 12.7382 10.3771 12.5422 10.6382 12.25Z" stroke="#2FCCAC" stroke-width="1.33" stroke-linecap="round" stroke-linejoin="round"/>
</g>
<defs>
<clipPath id="clip0_184_10189">
<rect width="14" height="14" fill="white"/>
</clipPath>
</defs>
</svg>
