<svg width="293" height="447" viewBox="0 0 293 447" fill="none" xmlns="http://www.w3.org/2000/svg">
<path d="M233.269 0.725332C175.573 3.61929 134.846 22.6712 111.42 57.5595C101.404 72.5116 94.9472 90.5184 90.56 116.082C88.9872 125.648 88.4078 129.828 84.1861 162.707C80.9578 188.511 77.9778 200.489 71.7694 213.592C67.2167 223.319 62.0844 229.911 48.2605 243.818C23.4272 268.899 23.0133 269.944 15.1494 322.678C13.3283 335.058 9.18943 359.817 5.96109 377.744C2.73276 395.67 0.00109019 412.31 0.00109019 414.803C-0.0816876 422.439 4.55387 427.986 12.4178 429.594C15.6461 430.237 20.8611 428.951 23.7583 426.7C28.8078 422.841 28.5594 423.806 43.7905 345.267C50.33 311.022 50.9922 308.932 55.9589 306.44C59.6011 304.591 65.1472 304.752 67.8789 306.681C72.2661 309.897 73.5078 312.389 73.425 317.694C73.425 320.588 69.1206 343.579 63.2433 372.84C55.3794 411.667 53.2272 423.726 53.6411 426.378C55.2139 436.668 66.8856 441.893 75.9083 436.427C81.9511 432.809 82.2822 431.925 92.4639 387.39C106.702 325.411 107.778 321.231 109.351 319.141C111.254 316.569 115.89 314.237 119.036 314.237C125.327 314.237 131.038 319.784 131.038 325.974C131.038 329.029 124.664 356.682 111.834 409.095C106.702 429.915 106.371 435.301 109.682 440.205C112.082 443.822 116.387 446.154 121.684 446.716C126.486 447.199 133.356 443.983 136.171 439.803C138.737 436.025 139.813 432.809 145.524 411.105C148.091 401.378 154.796 376.216 160.424 355.235C171.351 314.72 173.255 305.958 173.255 297.436C173.172 284.976 170.689 275.812 163.653 262.789C150.905 239.155 147.842 230.393 147.014 215.2L146.518 206.598L191.963 206.357C232.607 206.116 237.822 205.955 241.712 204.669C248.334 202.499 252.722 198.801 255.95 192.611C258.433 187.948 258.764 186.501 258.764 181.357C258.764 174.282 256.612 169.218 252.059 165.52C246.017 160.697 246.017 160.697 196.681 160.697H151.733V158.848C151.733 154.427 156.12 128.059 158.272 119.699C162.825 101.773 169.364 89.1518 179.712 78.5407C189.148 68.8941 198.668 63.1866 212.988 58.7653C224.991 55.0674 235.421 53.6205 255.205 53.0577C272.009 52.5754 273.251 52.4146 277.555 50.4853C283.929 47.5914 287.819 44.0543 290.551 38.6683C293.614 32.5589 293.862 23.2339 290.965 17.5264C287.902 11.4169 283.763 7.4779 277.307 4.34278C267.704 -0.23932 261.91 -0.721647 233.269 0.725332Z" fill="url(#paint0_linear_451_928)"/>
<defs>
<linearGradient id="paint0_linear_451_928" x1="146.5" y1="0" x2="146.5" y2="446.764" gradientUnits="userSpaceOnUse">
<stop stop-color="#2FCBAC"/>
</linearGradient>
</defs>
</svg>
