<svg
  width="24"
  height="24"
  viewBox="0 0 24 24"
  fill="none"
  xmlns="http://www.w3.org/2000/svg"
  stroke="currentColor"
  stroke-linecap="round"
  stroke-linejoin="round"
>
  <g clip-path="url(#clip0_572_908)">
    <path d="M16 2L13.7 4.3C13.15 4.86 12.84 5.61 12.84 6.4C12.84 7.19 13.15 7.94 13.7 8.5L15.5 10.3C16.06 10.85 16.81 11.16 17.6 11.16C18.39 11.16 19.14 10.85 19.7 10.3L22 8" />
    <path d="M15 15L3.3 3.3C2.9 3.69 2.58 4.16 2.37 4.67C2.15 5.19 2.04 5.74 2.04 6.3C2.04 6.86 2.15 7.41 2.37 7.93C2.58 8.44 2.9 8.91 3.3 9.3L10.6 16.6C11.3 17.3 12.6 17.3 13.4 16.6L15 15ZM15 15L22 22" />
    <path d="M2.1 21.8L8.5 15.5" />
    <path d="M19 5L12 12" />
  </g>
  <defs>
    <clipPath id="clip0_572_908">
      <rect width="24" height="24" fill="white"/>
    </clipPath>
  </defs>
</svg>
