<svg width="16" height="16" viewBox="0 0 16 16" fill="none" xmlns="http://www.w3.org/2000/svg">
<g clip-path="url(#clip0_184_10198)">
<path d="M7.99485 14.6572C11.6743 14.6572 14.6572 11.6743 14.6572 7.99485C14.6572 4.31534 11.6743 1.33252 7.99485 1.33252C4.31534 1.33252 1.33252 4.31534 1.33252 7.99485C1.33252 11.6743 4.31534 14.6572 7.99485 14.6572Z" stroke="#2B7FFF" stroke-width="1.33247" stroke-linecap="round" stroke-linejoin="round"/>
<path d="M7.99471 11.9922C10.2024 11.9922 11.9921 10.2025 11.9921 7.99483C11.9921 5.78713 10.2024 3.99744 7.99471 3.99744C5.78701 3.99744 3.99731 5.78713 3.99731 7.99483C3.99731 10.2025 5.78701 11.9922 7.99471 11.9922Z" stroke="#2B7FFF" stroke-width="1.33247" stroke-linecap="round" stroke-linejoin="round"/>
<path d="M7.99482 9.32728C8.73072 9.32728 9.32728 8.73072 9.32728 7.99482C9.32728 7.25892 8.73072 6.66235 7.99482 6.66235C7.25892 6.66235 6.66235 7.25892 6.66235 7.99482C6.66235 8.73072 7.25892 9.32728 7.99482 9.32728Z" stroke="#2B7FFF" stroke-width="1.33247" stroke-linecap="round" stroke-linejoin="round"/>
</g>
<defs>
<clipPath id="clip0_184_10198">
<rect width="15.9896" height="15.9896" fill="white"/>
</clipPath>
</defs>
</svg>
